<?xml version="1.0" standalone="no"?>
<!DOCTYPE svg PUBLIC "-//W3C//DTD SVG 20010904//EN"
 "http://www.w3.org/TR/2001/REC-SVG-20010904/DTD/svg10.dtd">
<svg version="1.0" xmlns="http://www.w3.org/2000/svg"
 width="512.000000pt" height="512.000000pt" viewBox="0 0 512.000000 512.000000"
 preserveAspectRatio="xMidYMid meet">

<g transform="translate(0.000000,512.000000) scale(0.100000,-0.100000)"
fill="#000000" stroke="none">
<path d="M1880 5104 c-168 -44 -305 -172 -354 -328 l-18 -56 -316 0 c-192 0
-332 -4 -355 -11 -21 -6 -56 -28 -77 -49 l-39 -39 -248 -3 -248 -3 -57 -28
c-64 -32 -111 -80 -142 -146 l-21 -46 0 -2085 0 -2085 21 -46 c31 -66 78 -114
142 -146 l57 -28 1775 0 1775 0 57 28 c64 32 111 80 142 146 l21 46 0 2085 0
2085 -21 46 c-31 66 -78 114 -142 146 l-57 28 -248 3 -248 3 -39 39 c-21 21
-56 43 -77 49 -23 7 -163 11 -355 11 l-316 0 -21 61 c-82 243 -347 388 -591
323z m240 -216 c96 -41 161 -134 176 -253 5 -46 13 -66 35 -87 l27 -28 371 0
371 0 0 -200 0 -200 -1100 0 -1100 0 0 200 0 200 371 0 371 0 27 28 c22 21 30
41 35 87 27 216 224 336 416 253z m-1420 -568 l0 -100 -121 0 c-120 0 -121 0
-150 -29 l-29 -29 0 -1852 0 -1852 29 -29 29 -29 567 0 567 0 29 29 c32 32 38
71 17 116 -25 55 -26 55 -553 55 l-485 0 0 1710 0 1710 60 0 c57 0 62 -2 99
-39 22 -22 57 -44 78 -50 53 -15 2273 -15 2326 0 21 6 56 28 78 50 37 37 42
39 99 39 l60 0 0 -1710 0 -1710 -485 0 c-527 0 -528 0 -553 -55 -21 -45 -15
-84 17 -116 l29 -29 567 0 567 0 29 29 29 29 0 1852 0 1852 -29 29 c-29 29
-30 29 -150 29 l-121 0 0 101 0 100 220 -3 220 -3 27 -28 28 -27 0 -2050 0
-2050 -28 -27 -27 -28 -1740 0 -1740 0 -27 28 -28 27 0 2049 c0 2035 0 2049
20 2071 11 12 29 26 40 31 11 4 113 8 228 8 l207 1 0 -100z"/>
<path d="M1929 4691 c-64 -65 -20 -171 71 -171 33 0 48 6 71 29 64 65 20 171
-71 171 -33 0 -48 -6 -71 -29z"/>
<path d="M1124 2740 c-35 -14 -64 -59 -64 -98 0 -30 8 -44 49 -83 70 -68 141
-93 261 -94 83 0 102 3 153 27 118 55 169 116 151 180 -21 73 -105 93 -172 39
-22 -17 -51 -35 -66 -41 -63 -24 -149 -4 -216 49 -31 25 -68 33 -96 21z"/>
<path d="M2385 2736 c-39 -17 -55 -37 -61 -78 -16 -98 168 -207 330 -195 98 6
178 39 237 96 41 40 49 53 49 84 0 84 -94 130 -157 79 -69 -56 -155 -76 -219
-52 -15 6 -43 23 -63 39 -46 36 -78 43 -116 27z"/>
<path d="M1789 2041 c-40 -40 -40 -89 0 -133 l29 -33 182 0 182 0 29 33 c40
44 40 93 0 133 l-29 29 -182 0 -182 0 -29 -29z"/>
<path d="M1951 586 c-89 -49 -53 -186 49 -186 33 0 48 6 71 29 80 81 -20 212
-120 157z"/>
<path d="M4571 5106 c-47 -26 -63 -84 -37 -135 22 -41 55 -51 176 -51 l110 0
-151 -202 c-148 -197 -151 -203 -146 -242 4 -27 15 -49 32 -63 26 -22 32 -23
265 -23 233 0 239 1 265 23 17 14 28 36 32 63 5 36 1 46 -25 75 l-30 34 -116
3 c-64 2 -116 6 -116 8 0 3 60 84 133 182 74 97 139 187 145 199 25 45 6 105
-39 129 -39 20 -462 20 -498 0z"/>
<path d="M4274 4081 c-40 -17 -66 -62 -61 -105 8 -61 35 -80 121 -86 l74 -5
-100 -135 c-96 -128 -100 -136 -95 -175 4 -26 15 -48 32 -62 25 -22 33 -23
215 -23 182 0 190 1 215 23 17 14 28 36 32 63 5 36 1 46 -25 75 -27 30 -36 33
-96 37 -36 2 -66 6 -66 9 0 2 41 58 91 124 109 145 119 177 71 230 l-30 34
-179 2 c-98 1 -188 -2 -199 -6z"/>
</g>
</svg>
